<?xml version="1.0" encoding="utf-8"?>
<!-- Generator: Adobe Illustrator 24.3.0, SVG Export Plug-In . SVG Version: 6.00 Build 0)  -->
<svg version="1.1" id="Capa_1" xmlns="http://www.w3.org/2000/svg" xmlns:xlink="http://www.w3.org/1999/xlink" x="0px" y="0px"
	 viewBox="0 0 17.3 21.3" style="enable-background:new 0 0 17.3 21.3;" xml:space="preserve">
<style type="text/css">
	.st0{fill:#0171ED;}
</style>
<g transform="translate(-48.886)">
	<g transform="translate(48.886)">
		<g transform="translate(0)">
			<path class="st0" d="M15.7,3.7C13-0.2,7.6-1.2,3.7,1.5C2.9,2.1,2.1,2.9,1.5,3.7c-1.6,2.3-2,5.3-1,7.9c0.3,0.8,0.7,1.5,1.3,2.1
				l6.3,7.4c0.3,0.3,0.7,0.4,1.1,0.1c0,0,0.1-0.1,0.1-0.1l6.3-7.4c0.5-0.6,1-1.3,1.3-2.1C17.7,9,17.3,6,15.7,3.7z M15.3,11.1
				c-0.2,0.6-0.6,1.1-1,1.6l0,0l-5.7,6.7l-5.7-6.7c-0.4-0.5-0.8-1-1-1.6C1.1,8.9,1.4,6.5,2.8,4.6c2.2-3.2,6.7-4,9.9-1.8
				c0.7,0.5,1.3,1.1,1.8,1.8C15.8,6.5,16.1,8.9,15.3,11.1L15.3,11.1z"/>
		</g>
	</g>
	<g transform="translate(53.341 4.428)">
		<g transform="translate(0)">
			<path class="st0" d="M4.2,0C1.9,0,0,1.9,0,4.2s1.9,4.2,4.2,4.2s4.2-1.9,4.2-4.2C8.4,1.9,6.5,0,4.2,0z M4.2,6.9
				c-1.5,0-2.7-1.2-2.7-2.7c0-1.5,1.2-2.7,2.7-2.7c1.5,0,2.7,1.2,2.7,2.7v0C6.9,5.7,5.7,6.9,4.2,6.9z"/>
		</g>
	</g>
</g>
</svg>
